<svg xmlns="http://www.w3.org/2000/svg" width="1600" height="900" viewBox="0 0 1600 900" role="img" aria-labelledby="title desc">
  <title id="title">Layered project context illustration</title>
  <desc id="desc">A single entry card routes through layered project information toward a verified live state, representing recoverable context without duplicated instructions.</desc>

  <rect width="1600" height="900" fill="#f7f8fa"/>
  <rect x="145" y="120" width="1310" height="660" rx="44" fill="#ffffff" stroke="#dce1e7" stroke-width="3"/>

  <g transform="translate(245 305)">
    <rect width="270" height="290" rx="36" fill="#eef2f6" stroke="#dce1e7" stroke-width="3"/>
    <rect x="58" y="58" width="154" height="174" rx="20" fill="#ffffff" stroke="#b9c3d0" stroke-width="7"/>
    <path d="M91 104H177" stroke="#1f5eff" stroke-width="13" stroke-linecap="round"/>
    <path d="M91 145H177" stroke="#5e6876" stroke-width="10" stroke-linecap="round"/>
    <path d="M91 184H151" stroke="#5e6876" stroke-width="10" stroke-linecap="round"/>
    <circle cx="212" cy="145" r="18" fill="#1f5eff"/>
  </g>

  <path d="M515 450H635" fill="none" stroke="#1f5eff" stroke-width="12" stroke-linecap="round"/>
  <path d="M607 424L642 450L607 476" fill="none" stroke="#1f5eff" stroke-width="12" stroke-linecap="round" stroke-linejoin="round"/>

  <g transform="translate(650 210)">
    <rect width="380" height="110" rx="28" fill="#f8fafc" stroke="#dce1e7" stroke-width="4"/>
    <circle cx="58" cy="55" r="18" fill="#b9c3d0"/>
    <path d="M102 44H306M102 68H252" stroke="#b9c3d0" stroke-width="10" stroke-linecap="round"/>
  </g>

  <g transform="translate(650 340)">
    <rect width="380" height="110" rx="28" fill="#eef2f6" stroke="#b9c3d0" stroke-width="4"/>
    <circle cx="58" cy="55" r="18" fill="#1f5eff"/>
    <path d="M102 44H306M102 68H270" stroke="#5e6876" stroke-width="10" stroke-linecap="round"/>
  </g>

  <g transform="translate(650 470)">
    <rect width="380" height="110" rx="28" fill="#f8fafc" stroke="#dce1e7" stroke-width="4"/>
    <circle cx="58" cy="55" r="18" fill="#b9c3d0"/>
    <path d="M102 44H292M102 68H236" stroke="#b9c3d0" stroke-width="10" stroke-linecap="round"/>
  </g>

  <g transform="translate(650 600)">
    <rect width="380" height="110" rx="28" fill="#f8fafc" stroke="#dce1e7" stroke-width="4"/>
    <circle cx="58" cy="55" r="18" fill="#b9c3d0"/>
    <path d="M102 44H280M102 68H314" stroke="#b9c3d0" stroke-width="10" stroke-linecap="round"/>
  </g>

  <path d="M642 450H650" stroke="#1f5eff" stroke-width="12" stroke-linecap="round"/>
  <path d="M1030 395H1130" stroke="#1f5eff" stroke-width="12" stroke-linecap="round"/>
  <path d="M1102 369L1137 395L1102 421" fill="none" stroke="#1f5eff" stroke-width="12" stroke-linecap="round" stroke-linejoin="round"/>

  <g transform="translate(1145 285)">
    <rect width="210" height="220" rx="34" fill="#eef2f6" stroke="#dce1e7" stroke-width="3"/>
    <circle cx="105" cy="110" r="62" fill="#ffffff" stroke="#1f5eff" stroke-width="12"/>
    <path d="M73 111L97 135L142 87" fill="none" stroke="#18202a" stroke-width="14" stroke-linecap="round" stroke-linejoin="round"/>
  </g>

  <path d="M840 320V340M840 450V470M840 580V600" stroke="#dce1e7" stroke-width="8" stroke-linecap="round"/>

  <circle cx="202" cy="190" r="12" fill="#1f5eff"/>
  <circle cx="1398" cy="710" r="12" fill="#1f5eff"/>
  <path d="M238 190H390" stroke="#dce1e7" stroke-width="6" stroke-linecap="round"/>
  <path d="M1210 710H1362" stroke="#dce1e7" stroke-width="6" stroke-linecap="round"/>
</svg>
